<svg xmlns="http://www.w3.org/2000/svg" width="49.787" height="58" viewBox="0 0 49.787 58">
  <g id="Group_903" data-name="Group 903" transform="translate(-100.03 -381.67)">
    <g id="Group_885" data-name="Group 885" transform="translate(100.03 381.67)">
      <g id="Group_884" data-name="Group 884">
        <g id="Group_883" data-name="Group 883">
          <path id="Path_839" data-name="Path 839" d="M149.467,453.21l-18.921-10.773,11.143-17.15a2.569,2.569,0,0,0,.375-1.855h0a2.523,2.523,0,0,0-.669-1.311c-.059-.061-.12-.123-.189-.181l-7.729-6.629-.341-.292a2.214,2.214,0,0,0-3.068.174l-12.944,13.939-.012.007L113.8,432.7l-.02.02,9.506-22.82-3.152.417h0l-1.573,3.708h0l-1.686.223-1.115,2.963-2.568.338,1.358-3.47,1.7-.225,1.247-3.188-2.576.341-.444,1.137-2.911.385L100.3,441.361l-.017.047a4.274,4.274,0,0,0-.255,1.394v.029c0,.127,0,.257.015.385,0,.01,0,.02,0,.029.012.13.029.26.051.387,0,0,0,.007,0,.012a4.29,4.29,0,0,0,.395,1.171l.186.365,4.365,8.582q1.985-2.687,4.021-5.266c7.256-9.168,14.9-17.051,22.315-21.428h0c-1.742,5.928-5.972,11.65-10.212,17.421a1,1,0,0,0,.115,1.311l14.772,14.135a3.764,3.764,0,0,0,4.717.395l8.741-5.943A.7.7,0,0,0,149.467,453.21Z" transform="translate(-100.03 -402.982)" fill="#1476eb"/>
          <path id="Path_840" data-name="Path 840" d="M154.431,399.624l.2-.512.51-1.3.323-.831-.534.071-2.38.314h0l-.323.831-.51,1.3-.2.512,2.377-.314Z" transform="translate(-138.902 -393.228)" fill="#1476eb"/>
          <path id="Path_841" data-name="Path 841" d="M169.029,386.767l.74-.1.218-.556.431-1.105-.74.1-.875.115-.534.071-.431,1.105-.218.554.534-.069Z" transform="translate(-151.056 -384.191)" fill="#1476eb"/>
          <path id="Path_842" data-name="Path 842" d="M174.621,389.015l-.51,1.3-.2.515.868-.115.985-.13.831-.11.216-.515.544-1.306h0l1.622-.216.346-.831.189-.456.573-1.372-1.622.213-.833.11-.571,1.375-.189.453-1.056.14-.868.113Z" transform="translate(-155.805 -384.773)" fill="#1476eb"/>
          <path id="Path_843" data-name="Path 843" d="M195.649,400.892l-.561,1.348-.118.282,1.88-.248h0l.118-.282.561-1.348.213-.515-1.882.247Z" transform="translate(-171.704 -395.606)" fill="#1476eb"/>
          <path id="Path_844" data-name="Path 844" d="M205.466,382.226l.233-.556-1.885.248-.23.556h0l-.573,1.375,1.885-.248Z" transform="translate(-177.773 -381.67)" fill="#1476eb"/>
        </g>
      </g>
    </g>
  </g>
</svg>
