<svg xmlns="http://www.w3.org/2000/svg" width="132" height="95.085" viewBox="0 0 132 95.085">
  <g id="kuci_logo_v" transform="translate(-146.91 -245.66)">
    <g id="Group_1251" data-name="Group 1251" transform="translate(188.989 245.66)">
      <g id="Group_1250" data-name="Group 1250" transform="translate(0 0)">
        <g id="Group_1249" data-name="Group 1249">
          <path id="Path_825" data-name="Path 825" d="M419.538,322.83l-18.182-10.352L412.065,296a2.458,2.458,0,0,0,.359-1.783h0a2.421,2.421,0,0,0-.643-1.26c-.058-.06-.116-.118-.181-.174l-7.426-6.37-.327-.28a2.128,2.128,0,0,0-2.95.166l-12.438,13.395-.013.006-3.178,3.423-.019.019,9.135-21.93-3.028.4h0l-1.51,3.563h0l-1.621.213-1.073,2.847-2.467.325,1.3-3.335,1.636-.217,1.2-3.064-2.475.327-.428,1.092-2.8.37-10.83,27.709-.017.045a4.143,4.143,0,0,0-.247,1.34v.028c0,.123,0,.247.013.368,0,.009,0,.019,0,.028.011.125.028.249.05.374,0,0,0,.007,0,.011a4.092,4.092,0,0,0,.379,1.127l.179.351,4.194,8.247q1.907-2.582,3.866-5.06c6.972-8.81,14.318-16.385,21.445-20.591h0c-1.675,5.7-5.738,11.2-9.813,16.741a.958.958,0,0,0,.11,1.26l14.195,13.582a3.619,3.619,0,0,0,4.533.379l8.4-5.71A.669.669,0,0,0,419.538,322.83Z" transform="translate(-372.028 -274.565)" fill="#1476eb"/>
          <path id="Path_826" data-name="Path 826" d="M439.71,267.492,439.9,267l.488-1.251.312-.8-.514.067-2.286.3h0l-.31.8-.49,1.25-.193.492,2.286-.3Z" transform="translate(-424.782 -261.344)" fill="#1476eb"/>
          <path id="Path_827" data-name="Path 827" d="M458.555,251.56l.712-.093.207-.533.415-1.064-.71.093-.841.112-.514.067-.415,1.064-.209.531.514-.067Z" transform="translate(-441.28 -249.083)" fill="#1476eb"/>
          <path id="Path_828" data-name="Path 828" d="M465.812,253.94l-.49,1.25-.193.493.832-.11.946-.123.8-.107.207-.5.521-1.254v0l1.559-.206.335-.8.181-.437.55-1.322-1.559.206-.8.107-.55,1.322-.181.436-1.015.133-.832.11Z" transform="translate(-447.727 -249.864)" fill="#1476eb"/>
          <path id="Path_829" data-name="Path 829" d="M492.311,269.653l-.538,1.3-.112.271,1.808-.239h0l.112-.271.54-1.3.206-.493-1.809.237Z" transform="translate(-469.298 -264.572)" fill="#1476eb"/>
          <path id="Path_830" data-name="Path 830" d="M504.151,246.195l.222-.535-1.811.239-.222.535h0l-.55,1.32,1.809-.239Z" transform="translate(-477.535 -245.66)" fill="#1476eb"/>
        </g>
      </g>
    </g>
    <g id="Group_1256" data-name="Group 1256" transform="translate(146.91 311.398)">
      <g id="Group_1252" data-name="Group 1252" transform="translate(0 24.152)">
        <path id="Path_831" data-name="Path 831" d="M150.63,726.95v.821h-1.351v4.249h-1.017v-4.249H146.91v-.821Z" transform="translate(-146.91 -726.877)" fill="#001b35"/>
        <path id="Path_832" data-name="Path 832" d="M186.6,732.019l-1.12-1.976H185v1.976H183.98V726.95h1.9a2.212,2.212,0,0,1,1,.207,1.452,1.452,0,0,1,.621.559,1.525,1.525,0,0,1,.207.789,1.466,1.466,0,0,1-1.155,1.458l1.213,2.056Zm-1.6-2.738h.85a.839.839,0,0,0,.617-.2.74.74,0,0,0,.2-.557.7.7,0,0,0-.2-.54.863.863,0,0,0-.617-.193H185Z" transform="translate(-177.051 -726.877)" fill="#001b35"/>
        <path id="Path_833" data-name="Path 833" d="M223.841,731.021h-2.019l-.335.966H220.42l1.822-5.077h1.183l1.822,5.077h-1.075Zm-.275-.813-.733-2.122-.733,2.122Z" transform="translate(-206.679 -726.845)" fill="#001b35"/>
        <path id="Path_834" data-name="Path 834" d="M267.457,731.987H266.44l-2.3-3.479v3.479H263.12V726.91h1.017l2.3,3.486V726.91h1.017Z" transform="translate(-241.398 -726.845)" fill="#001b35"/>
        <path id="Path_835" data-name="Path 835" d="M305.125,731.58a1.572,1.572,0,0,1-.671-.523,1.386,1.386,0,0,1-.254-.806h1.09a.7.7,0,0,0,.222.493.781.781,0,0,0,.548.181.839.839,0,0,0,.559-.17.557.557,0,0,0,.2-.447.519.519,0,0,0-.138-.37.948.948,0,0,0-.344-.228,5.636,5.636,0,0,0-.57-.185,6.32,6.32,0,0,1-.8-.286,1.4,1.4,0,0,1-.531-.428,1.221,1.221,0,0,1-.222-.766,1.374,1.374,0,0,1,.224-.785,1.438,1.438,0,0,1,.632-.512,2.313,2.313,0,0,1,.929-.178,2.017,2.017,0,0,1,1.275.381,1.412,1.412,0,0,1,.54,1.064H306.7a.58.58,0,0,0-.222-.432.834.834,0,0,0-.548-.17.705.705,0,0,0-.477.153.552.552,0,0,0-.178.443.458.458,0,0,0,.135.338.988.988,0,0,0,.335.217,5.853,5.853,0,0,0,.563.193,6.148,6.148,0,0,1,.806.29,1.461,1.461,0,0,1,.536.436,1.209,1.209,0,0,1,.224.763,1.419,1.419,0,0,1-.211.755,1.491,1.491,0,0,1-.617.555,2.1,2.1,0,0,1-.966.208A2.434,2.434,0,0,1,305.125,731.58Z" transform="translate(-274.799 -726.568)" fill="#001b35"/>
        <path id="Path_836" data-name="Path 836" d="M344.891,726.942v.821h-2.114v1.3H344.4v.806h-1.619v2.142H341.76V726.94h3.131Z" transform="translate(-305.338 -726.869)" fill="#001b35"/>
        <path id="Path_837" data-name="Path 837" d="M375.544,731.418a2.492,2.492,0,0,1-.944-.925,2.6,2.6,0,0,1-.35-1.34,2.566,2.566,0,0,1,.35-1.333,2.492,2.492,0,0,1,.944-.925,2.726,2.726,0,0,1,2.617,0,2.473,2.473,0,0,1,.936.925,2.755,2.755,0,0,1,0,2.673,2.469,2.469,0,0,1-.94.925,2.719,2.719,0,0,1-2.613,0Zm2.112-.779a1.422,1.422,0,0,0,.546-.593,1.942,1.942,0,0,0,.2-.893,1.92,1.92,0,0,0-.2-.89,1.4,1.4,0,0,0-.546-.585,1.7,1.7,0,0,0-1.615,0,1.394,1.394,0,0,0-.548.585,1.921,1.921,0,0,0-.2.89,1.942,1.942,0,0,0,.2.893,1.414,1.414,0,0,0,.548.593,1.675,1.675,0,0,0,1.615,0Z" transform="translate(-331.755 -726.56)" fill="#001b35"/>
        <path id="Path_838" data-name="Path 838" d="M421.9,732.019l-1.12-1.976H420.3v1.976H419.28V726.95h1.9a2.212,2.212,0,0,1,1,.207,1.452,1.452,0,0,1,.621.559,1.525,1.525,0,0,1,.207.789,1.466,1.466,0,0,1-1.155,1.458l1.213,2.056Zm-1.6-2.738h.85a.839.839,0,0,0,.617-.2.74.74,0,0,0,.2-.557.7.7,0,0,0-.2-.54.863.863,0,0,0-.617-.193h-.85Z" transform="translate(-368.368 -726.877)" fill="#001b35"/>
        <path id="Path_839" data-name="Path 839" d="M462.927,726.95v5.069H461.91v-3.3l-1.359,3.3h-.77l-1.365-3.3v3.3H457.4V726.95h1.155l1.613,3.768,1.613-3.768Z" transform="translate(-399.363 -726.877)" fill="#001b35"/>
        <path id="Path_840" data-name="Path 840" d="M507.291,731.021h-2.019l-.335.966H503.87l1.823-5.077h1.183l1.822,5.077h-1.075Zm-.277-.813-.733-2.122-.733,2.122Z" transform="translate(-437.147 -726.845)" fill="#001b35"/>
        <path id="Path_841" data-name="Path 841" d="M546.8,731.58a1.572,1.572,0,0,1-.671-.523,1.386,1.386,0,0,1-.254-.806h1.09a.7.7,0,0,0,.222.493.781.781,0,0,0,.548.181.839.839,0,0,0,.559-.17.557.557,0,0,0,.2-.447.519.519,0,0,0-.138-.37.947.947,0,0,0-.344-.228,5.628,5.628,0,0,0-.57-.185,6.32,6.32,0,0,1-.8-.286,1.422,1.422,0,0,1-.531-.428,1.221,1.221,0,0,1-.222-.766,1.374,1.374,0,0,1,.224-.785,1.438,1.438,0,0,1,.632-.512,2.312,2.312,0,0,1,.929-.178,2.017,2.017,0,0,1,1.275.381,1.412,1.412,0,0,1,.54,1.064h-1.118a.58.58,0,0,0-.222-.432.834.834,0,0,0-.548-.17.705.705,0,0,0-.477.153.552.552,0,0,0-.178.443.458.458,0,0,0,.135.338.988.988,0,0,0,.335.217,5.859,5.859,0,0,0,.563.193,6.147,6.147,0,0,1,.806.29,1.462,1.462,0,0,1,.536.436,1.209,1.209,0,0,1,.224.763,1.419,1.419,0,0,1-.211.755,1.491,1.491,0,0,1-.617.555,2.1,2.1,0,0,1-.966.208A2.434,2.434,0,0,1,546.8,731.58Z" transform="translate(-471.296 -726.568)" fill="#001b35"/>
        <path id="Path_842" data-name="Path 842" d="M584.457,726.95v5.069H583.44V726.95Z" transform="translate(-501.843 -726.877)" fill="#001b35"/>
        <path id="Path_843" data-name="Path 843" d="M633.088,727.262a2.241,2.241,0,0,1,.936.89,2.649,2.649,0,0,1,.331,1.34,2.606,2.606,0,0,1-.331,1.333,2.259,2.259,0,0,1-.936.882,3.036,3.036,0,0,1-1.406.312H629.91V726.95h1.772A3.013,3.013,0,0,1,633.088,727.262Zm-.207,3.456a1.66,1.66,0,0,0,.436-1.226,1.7,1.7,0,0,0-.436-1.237,1.652,1.652,0,0,0-1.236-.447h-.72v3.348h.72A1.664,1.664,0,0,0,632.88,730.718Z" transform="translate(-539.627 -726.877)" fill="#001b35"/>
        <path id="Path_844" data-name="Path 844" d="M672,726.95v5.069H670.98V726.95Z" transform="translate(-573.02 -726.877)" fill="#001b35"/>
        <path id="Path_845" data-name="Path 845" d="M697.464,728.2a1.2,1.2,0,0,0-.478-.486,1.474,1.474,0,0,0-.712-.166,1.553,1.553,0,0,0-.8.2,1.415,1.415,0,0,0-.546.581,2.047,2.047,0,0,0,0,1.757,1.4,1.4,0,0,0,.557.581,1.628,1.628,0,0,0,.828.2,1.438,1.438,0,0,0,.951-.308,1.466,1.466,0,0,0,.486-.86h-1.742v-.778h2.746v.886a2.388,2.388,0,0,1-.436.981,2.46,2.46,0,0,1-.86.723,2.533,2.533,0,0,1-1.179.273,2.666,2.666,0,0,1-1.325-.331,2.4,2.4,0,0,1-.929-.92,2.816,2.816,0,0,1,0-2.677,2.4,2.4,0,0,1,.929-.923,2.827,2.827,0,0,1,2.808.088,2.131,2.131,0,0,1,.871,1.172h-1.172Z" transform="translate(-591.485 -726.601)" fill="#001b35"/>
        <path id="Path_846" data-name="Path 846" d="M739.057,726.95v5.069H738.04V726.95Z" transform="translate(-627.545 -726.877)" fill="#001b35"/>
        <path id="Path_847" data-name="Path 847" d="M764.33,726.95v.821h-1.351v4.249h-1.017v-4.249H760.61v-.821Z" transform="translate(-645.897 -726.877)" fill="#001b35"/>
        <path id="Path_848" data-name="Path 848" d="M799.431,731.021h-2.019l-.335.966H796.01l1.823-5.077h1.183l1.823,5.077h-1.075Zm-.275-.813-.733-2.122-.733,2.122Z" transform="translate(-674.68 -726.845)" fill="#001b35"/>
        <path id="Path_849" data-name="Path 849" d="M839.735,731.214h1.671v.806H838.72V726.95h1.017v4.264Z" transform="translate(-709.406 -726.877)" fill="#001b35"/>
      </g>
      <g id="Group_1255" data-name="Group 1255" transform="translate(0 0)">
        <g id="Group_1254" data-name="Group 1254" transform="translate(30.42 0)">
          <g id="Group_1253" data-name="Group 1253">
            <path id="Path_850" data-name="Path 850" d="M332.961,610.444a6.078,6.078,0,0,1-1.512,4.131,4.9,4.9,0,0,1-3.873,1.733H315.035a4.9,4.9,0,0,1-3.892-1.733,6.117,6.117,0,0,1-1.493-4.131V597.35h4.426v13.094q0,1.438.961,1.439h12.572q.925,0,.925-1.439V597.35h4.426Z" transform="translate(-309.65 -597.35)" fill="#1476eb"/>
            <path id="Path_851" data-name="Path 851" d="M512.949,616.318h-4.426l-11.4-12.761v12.761H492.7V597.36h4.426l11.4,12.688V597.36h4.426v18.958Z" transform="translate(-458.484 -597.358)" fill="#1476eb"/>
            <path id="Path_852" data-name="Path 852" d="M680.255,616.318H665.577a6.142,6.142,0,0,1-4.389-1.712,5.658,5.658,0,0,1-1.808-4.288V603.36a5.655,5.655,0,0,1,1.808-4.288,6.142,6.142,0,0,1,4.389-1.712h14.679v4.426H665.577q-1.769,0-1.77,1.58v6.946q0,1.581,1.77,1.579h14.679v4.426Z" transform="translate(-594.008 -597.358)" fill="#1476eb"/>
            <path id="Path_853" data-name="Path 853" d="M833.836,616.318H829.41V597.36h4.426Z" transform="translate(-732.256 -597.358)" fill="#1476eb"/>
          </g>
        </g>
        <path id="Path_854" data-name="Path 854" d="M170.206,616.309h-6.26l-6.348-6.352-.772-.772h-5.492v7.124H146.91V597.35h4.424v7.124h5.492l.772-.772,6.348-6.352h6.264l-7.124,7.124-2.359,2.357Z" transform="translate(-146.91 -597.35)" fill="#1476eb"/>
      </g>
    </g>
  </g>
</svg>
