<svg xmlns="http://www.w3.org/2000/svg" width="162.243" height="48" viewBox="0 0 162.243 48">
  <g id="kunci_logo_h" transform="translate(-100.03 -381.67)">
    <g id="Group_1306" data-name="Group 1306" transform="translate(100.03 381.67)">
      <g id="Group_1305" data-name="Group 1305" transform="translate(0 0)">
        <g id="Group_1304" data-name="Group 1304">
          <path id="Path_855" data-name="Path 855" d="M140.943,445.743l-15.659-8.916,9.222-14.193a2.126,2.126,0,0,0,.31-1.535h0a2.088,2.088,0,0,0-.554-1.085c-.049-.051-.1-.1-.156-.15l-6.4-5.486-.282-.241a1.832,1.832,0,0,0-2.539.144l-10.712,11.536-.01.006-2.738,2.947-.016.016,7.867-18.886-2.608.345h0l-1.3,3.068h0l-1.4.184-.923,2.452-2.125.28,1.124-2.872,1.408-.187,1.032-2.639-2.132.282-.367.941-2.409.318-9.327,23.863-.014.038a3.539,3.539,0,0,0-.211,1.154v.024c0,.105,0,.213.012.318,0,.008,0,.016,0,.024.01.107.024.215.043.32,0,0,0,.006,0,.01a3.552,3.552,0,0,0,.327.969l.154.3,3.612,7.1q1.643-2.224,3.328-4.358c6.005-7.587,12.331-14.112,18.468-17.734h0c-1.442,4.906-4.943,9.642-8.451,14.418a.825.825,0,0,0,.1,1.085l12.225,11.7a3.115,3.115,0,0,0,3.9.327l7.234-4.918A.578.578,0,0,0,140.943,445.743Z" transform="translate(-100.03 -404.175)" fill="#1476eb"/>
          <path id="Path_856" data-name="Path 856" d="M153.929,399.168l.166-.424.422-1.077.268-.687-.442.059-1.969.26h0l-.268.688-.422,1.077-.164.424,1.967-.26Z" transform="translate(-141.077 -393.875)" fill="#1476eb"/>
          <path id="Path_857" data-name="Path 857" d="M168.786,386.464l.612-.079.181-.46.357-.915-.612.081-.724.1-.442.059-.357.915-.18.458.442-.057Z" transform="translate(-153.912 -384.333)" fill="#1476eb"/>
          <path id="Path_858" data-name="Path 858" d="M174.5,388.457l-.422,1.077-.166.426.718-.1.815-.107.688-.091.178-.426.45-1.081h0l1.343-.178.286-.688.156-.377.475-1.136-1.343.177-.69.091-.473,1.138-.156.375-.874.115-.718.093Z" transform="translate(-158.926 -384.947)" fill="#1476eb"/>
          <path id="Path_859" data-name="Path 859" d="M195.532,400.761l-.464,1.115-.1.233,1.556-.2h0l.1-.233.464-1.115.176-.426-1.558.2Z" transform="translate(-175.715 -396.386)" fill="#1476eb"/>
          <path id="Path_860" data-name="Path 860" d="M205.042,382.13l.193-.46-1.56.2-.191.46h0l-.475,1.138,1.56-.2Z" transform="translate(-182.125 -381.67)" fill="#1476eb"/>
        </g>
      </g>
    </g>
    <g id="Group_1311" data-name="Group 1311" transform="translate(148.589 397.791)">
      <g id="Group_1307" data-name="Group 1307" transform="translate(0 20.8)">
        <path id="Path_861" data-name="Path 861" d="M342.664,564.03v.708H341.5V568.4h-.876v-3.659H339.46v-.708Z" transform="translate(-339.46 -563.967)" fill="#001b35"/>
        <path id="Path_862" data-name="Path 862" d="M371.143,568.4l-.964-1.7h-.414v1.7h-.876V564.03h1.639a1.905,1.905,0,0,1,.864.178,1.266,1.266,0,0,1,.535.48,1.327,1.327,0,0,1,.178.679,1.3,1.3,0,0,1-.249.779,1.287,1.287,0,0,1-.744.479l1.045,1.771Zm-1.377-2.359h.732a.725.725,0,0,0,.531-.173.636.636,0,0,0,.174-.479.616.616,0,0,0-.174-.466.751.751,0,0,0-.531-.166h-.732Z" transform="translate(-362.921 -563.967)" fill="#001b35"/>
        <path id="Path_863" data-name="Path 863" d="M400.767,567.531h-1.738l-.288.832h-.921l1.57-4.373h1.02l1.57,4.373h-.927Zm-.239-.7L399.9,565l-.631,1.827Z" transform="translate(-385.984 -563.935)" fill="#001b35"/>
        <path id="Path_864" data-name="Path 864" d="M435.446,568.373h-.876l-1.984-3v3h-.876V564h.876l1.984,3v-3h.876Z" transform="translate(-413.001 -563.943)" fill="#001b35"/>
        <path id="Path_865" data-name="Path 865" d="M465.117,568.036a1.342,1.342,0,0,1-.578-.45,1.187,1.187,0,0,1-.219-.694h.939a.607.607,0,0,0,.191.426.677.677,0,0,0,.473.156.723.723,0,0,0,.483-.148.479.479,0,0,0,.174-.385.446.446,0,0,0-.12-.318.821.821,0,0,0-.3-.2,5.031,5.031,0,0,0-.491-.16,5.3,5.3,0,0,1-.692-.247,1.223,1.223,0,0,1-.456-.369,1.048,1.048,0,0,1-.191-.659,1.171,1.171,0,0,1,.195-.676,1.238,1.238,0,0,1,.544-.44,2,2,0,0,1,.8-.154,1.732,1.732,0,0,1,1.1.329,1.222,1.222,0,0,1,.466.917h-.963a.5.5,0,0,0-.191-.371.717.717,0,0,0-.472-.146.609.609,0,0,0-.41.132.477.477,0,0,0-.154.381.4.4,0,0,0,.116.292.851.851,0,0,0,.288.187,4.9,4.9,0,0,0,.485.166,5.031,5.031,0,0,1,.694.249,1.263,1.263,0,0,1,.462.375,1.039,1.039,0,0,1,.195.657,1.251,1.251,0,0,1-.18.651,1.288,1.288,0,0,1-.531.479,1.828,1.828,0,0,1-.832.178A2.124,2.124,0,0,1,465.117,568.036Z" transform="translate(-438.997 -563.72)" fill="#001b35"/>
        <path id="Path_866" data-name="Path 866" d="M496.827,564.03v.708h-1.821v1.12h1.4v.694h-1.4V568.4h-.876V564.03Z" transform="translate(-462.761 -563.967)" fill="#001b35"/>
        <path id="Path_867" data-name="Path 867" d="M521.033,567.9a2.178,2.178,0,0,1-.813-.8,2.357,2.357,0,0,1,0-2.3,2.133,2.133,0,0,1,.813-.8,2.279,2.279,0,0,1,1.126-.288,2.252,2.252,0,0,1,1.13.288,2.145,2.145,0,0,1,.807.8,2.372,2.372,0,0,1,0,2.3,2.121,2.121,0,0,1-.809.8,2.347,2.347,0,0,1-2.253,0Zm1.821-.671a1.212,1.212,0,0,0,.469-.509,1.834,1.834,0,0,0,0-1.535,1.2,1.2,0,0,0-.469-.5,1.367,1.367,0,0,0-.694-.174,1.387,1.387,0,0,0-.7.174,1.219,1.219,0,0,0-.473.5,1.833,1.833,0,0,0,0,1.535,1.21,1.21,0,0,0,.473.509,1.362,1.362,0,0,0,.7.178A1.342,1.342,0,0,0,522.855,567.233Z" transform="translate(-483.321 -563.72)" fill="#001b35"/>
        <path id="Path_868" data-name="Path 868" d="M557.913,568.4l-.963-1.7h-.414v1.7h-.876V564.03H557.3a1.906,1.906,0,0,1,.864.178,1.263,1.263,0,0,1,.535.48,1.327,1.327,0,0,1,.178.679,1.3,1.3,0,0,1-.249.779,1.288,1.288,0,0,1-.744.479l1.045,1.771Zm-1.377-2.359h.732a.726.726,0,0,0,.531-.173.638.638,0,0,0,.174-.479.617.617,0,0,0-.174-.466.753.753,0,0,0-.531-.166h-.732Z" transform="translate(-511.812 -563.967)" fill="#001b35"/>
        <path id="Path_869" data-name="Path 869" d="M590.672,564.03V568.4H589.8v-2.84l-1.17,2.84h-.663l-1.176-2.84v2.84h-.876V564.03h.994l1.389,3.247,1.389-3.247Z" transform="translate(-535.927 -563.967)" fill="#001b35"/>
        <path id="Path_870" data-name="Path 870" d="M625.747,567.531h-1.738l-.288.832H622.8l1.57-4.373h1.02l1.57,4.373h-.927Zm-.237-.7L624.879,565l-.631,1.827Z" transform="translate(-565.335 -563.935)" fill="#001b35"/>
        <path id="Path_871" data-name="Path 871" d="M656.947,568.036a1.342,1.342,0,0,1-.578-.45,1.188,1.188,0,0,1-.219-.694h.939a.606.606,0,0,0,.191.426.676.676,0,0,0,.472.156.723.723,0,0,0,.483-.148.479.479,0,0,0,.175-.385.446.446,0,0,0-.12-.318.822.822,0,0,0-.3-.2,5,5,0,0,0-.491-.16,5.287,5.287,0,0,1-.691-.247,1.223,1.223,0,0,1-.457-.369,1.048,1.048,0,0,1-.191-.659,1.172,1.172,0,0,1,.195-.676,1.239,1.239,0,0,1,.543-.44,2,2,0,0,1,.8-.154,1.731,1.731,0,0,1,1.1.329,1.222,1.222,0,0,1,.467.917H658.3a.5.5,0,0,0-.191-.371.718.718,0,0,0-.473-.146.609.609,0,0,0-.41.132.477.477,0,0,0-.154.381.4.4,0,0,0,.115.292.851.851,0,0,0,.288.187,4.884,4.884,0,0,0,.485.166,5.02,5.02,0,0,1,.694.249,1.261,1.261,0,0,1,.462.375,1.039,1.039,0,0,1,.195.657,1.249,1.249,0,0,1-.181.651,1.272,1.272,0,0,1-.531.479,1.828,1.828,0,0,1-.832.178A2.126,2.126,0,0,1,656.947,568.036Z" transform="translate(-591.922 -563.72)" fill="#001b35"/>
        <path id="Path_872" data-name="Path 872" d="M686.836,564.03V568.4h-.876V564.03Z" transform="translate(-615.686 -563.967)" fill="#001b35"/>
        <path id="Path_873" data-name="Path 873" d="M725.6,564.3a1.924,1.924,0,0,1,.807.767,2.474,2.474,0,0,1,0,2.3,1.938,1.938,0,0,1-.807.761,2.623,2.623,0,0,1-1.211.27H722.86V564.03h1.525A2.623,2.623,0,0,1,725.6,564.3Zm-.178,2.977a1.43,1.43,0,0,0,.375-1.057,1.465,1.465,0,0,0-.375-1.067,1.419,1.419,0,0,0-1.063-.385h-.619v2.884h.619A1.426,1.426,0,0,0,725.417,567.275Z" transform="translate(-645.102 -563.967)" fill="#001b35"/>
        <path id="Path_874" data-name="Path 874" d="M756.326,564.03V568.4h-.876V564.03Z" transform="translate(-671.083 -563.967)" fill="#001b35"/>
        <path id="Path_875" data-name="Path 875" d="M776.729,565.119a1.033,1.033,0,0,0-.414-.42,1.262,1.262,0,0,0-.613-.144,1.343,1.343,0,0,0-.687.174,1.19,1.19,0,0,0-.469.5,1.615,1.615,0,0,0-.168.75,1.6,1.6,0,0,0,.173.763,1.225,1.225,0,0,0,.479.5,1.4,1.4,0,0,0,.712.175,1.239,1.239,0,0,0,.819-.266,1.266,1.266,0,0,0,.42-.74h-1.5v-.669h2.365v.762a2.038,2.038,0,0,1-.375.844,2.128,2.128,0,0,1-.74.623,2.18,2.18,0,0,1-1.016.235,2.312,2.312,0,0,1-1.142-.284,2.1,2.1,0,0,1-.8-.791,2.432,2.432,0,0,1,0-2.3,2.068,2.068,0,0,1,.8-.8,2.3,2.3,0,0,1,1.135-.284,2.278,2.278,0,0,1,1.282.359,1.834,1.834,0,0,1,.75,1.01Z" transform="translate(-685.456 -563.744)" fill="#001b35"/>
        <path id="Path_876" data-name="Path 876" d="M809.556,564.03V568.4h-.876V564.03Z" transform="translate(-713.517 -563.967)" fill="#001b35"/>
        <path id="Path_877" data-name="Path 877" d="M829.794,564.03v.708H828.63V568.4h-.876v-3.659H826.59v-.708Z" transform="translate(-727.795 -563.967)" fill="#001b35"/>
        <path id="Path_878" data-name="Path 878" d="M857.637,567.531H855.9l-.288.832h-.921l1.57-4.373h1.02l1.57,4.373h-.927Zm-.237-.7L856.769,565l-.631,1.827Z" transform="translate(-750.196 -563.935)" fill="#001b35"/>
        <path id="Path_879" data-name="Path 879" d="M889.466,567.693H890.9v.694H888.59V564.02h.876Z" transform="translate(-777.22 -563.959)" fill="#001b35"/>
      </g>
      <g id="Group_1310" data-name="Group 1310" transform="translate(0.002 0)">
        <g id="Group_1309" data-name="Group 1309" transform="translate(26.199 0.002)">
          <g id="Group_1308" data-name="Group 1308">
            <path id="Path_880" data-name="Path 880" d="M488.724,472.446a5.232,5.232,0,0,1-1.3,3.557,4.224,4.224,0,0,1-3.336,1.493h-10.8a4.21,4.21,0,0,1-3.35-1.493,5.268,5.268,0,0,1-1.286-3.557V461.17h3.811v11.276q0,1.238.827,1.239h10.828q.8,0,.8-1.239V461.17h3.811Z" transform="translate(-468.65 -461.17)" fill="#1476eb"/>
            <path id="Path_881" data-name="Path 881" d="M631.38,477.5h-3.813l-9.816-10.99V477.5H613.94V461.17h3.811l9.816,10.927V461.17h3.813Z" transform="translate(-584.474 -461.17)" fill="#1476eb"/>
            <path id="Path_882" data-name="Path 882" d="M764.219,477.5H751.576a5.294,5.294,0,0,1-3.78-1.474,4.871,4.871,0,0,1-1.555-3.693v-5.991a4.877,4.877,0,0,1,1.555-3.693,5.29,5.29,0,0,1,3.78-1.474h12.644v3.811H751.576q-1.524,0-1.525,1.361v5.981q0,1.36,1.525,1.361h12.644Z" transform="translate(-689.942 -461.17)" fill="#1476eb"/>
            <path id="Path_883" data-name="Path 883" d="M885.021,477.5H881.21V461.17h3.811Z" transform="translate(-797.538 -461.17)" fill="#1476eb"/>
          </g>
        </g>
        <path id="Path_884" data-name="Path 884" d="M359.532,477.488h-5.391l-5.466-5.47-.665-.665h-4.729v6.135H339.47V461.16h3.811V467.3h4.729l.665-.665,5.466-5.47h5.395L353.4,467.3l-2.032,2.03Z" transform="translate(-339.47 -461.16)" fill="#1476eb"/>
      </g>
    </g>
  </g>
</svg>
