<svg xmlns="http://www.w3.org/2000/svg" width="194" height="95" viewBox="0 0 194 95">
  <g id="logo-prima" transform="translate(-30.43 -142.87)">
    <path id="Path_1277" data-name="Path 1277" d="M5.3,0H188.7A5.311,5.311,0,0,1,194,5.321V89.679A5.311,5.311,0,0,1,188.7,95H5.3A5.311,5.311,0,0,1,0,89.679V5.321A5.311,5.311,0,0,1,5.3,0Z" transform="translate(30.43 142.87)" fill="#a80000"/>
    <path id="Path_1263" data-name="Path 1263" d="M70.023,198.216c-2.339-2.863-5.494-4.229-9.129-5.326a4.7,4.7,0,0,1,1.074-.577c2.392-.413,4.811-.666,7.207-1.039a77.158,77.158,0,0,1,18.591-.728c2.268.186,4.207,1.331,6.213,2.343a25.332,25.332,0,0,0,7.873,2.339,11.492,11.492,0,0,1,9.795,7.851c2.166,6.852-1.984,15.289-6.954,19.971a22.421,22.421,0,0,1-7.234,4.731,2.343,2.343,0,0,1-.888,0,3.434,3.434,0,0,1,.146-.777c1.407-3.155,2.916-6.266,4.225-9.462a8.048,8.048,0,0,0-5.8-11.219c-8.028-1.567-16.225-.559-24.338-.888-2.476-.062-4.944-.262-7.416-.4-5.574-.342-11.193-5.082-12.142-10.651,3.155,1.025,6.178,2.09,9.249,3A27.948,27.948,0,0,0,70.023,198.216Zm22.115-2.8c-1.4-1.487-6.719-3.067-8.352-2.481C85.063,194.63,90.194,196.144,92.138,195.411Z" transform="translate(-12.028 -26.409)" fill="#fff"/>
    <path id="Path_1264" data-name="Path 1264" d="M65.3,265.6c2.379-7.735,4.66-15.045,7.1-22.678q1.513-4.78,3.076-9.546c.639-1.935,1.544-2.663,3.55-2.7,3.147-.08,6.293-.084,9.444-.1.954,0,1.225.4.941,1.26C87.734,236.9,86.123,241.977,84.348,247c-1.331,3.688-2.7,7.363-4.309,10.931-2.49,5.6-7.878,7.2-13.54,7.749A6.611,6.611,0,0,1,65.3,265.6Z" transform="translate(-19.843 -48.819)" fill="#fff"/>
    <path id="Path_1265" data-name="Path 1265" d="M340.468,222.775a10.594,10.594,0,0,0,.817-.888c2.636-3.679,5.25-7.367,7.9-11.029a1.593,1.593,0,0,1,1.061-.621c1.647-.071,3.293-.022,4.944-.044.772,0,.852.444.706,1.016-.772,3.071-1.584,6.133-2.334,9.213-1.061,4.234-1.9,8.53-3.049,12.737a.977.977,0,0,1-.706.537c-1.442.049-2.885,0-4.327.027-.568,0-.741-.266-.608-.781.932-3.661,2.042-7.283,2.8-10.989l-.266-.133c-2.268,2.969-4.331,6.089-6.5,9.129-.723,1.03-1.154,1.105-2.326.581a3.593,3.593,0,0,1-1.948-2.743c-.586-2.823-.772-5.21-1.549-8.1-1.163,4.2-2.246,7.988-3.04,12.218-.076.612-.346.834-.928.825H327c-.71,0-.812-.355-.675-.914,1.6-6.622,3.178-13.243,4.882-19.834a3.328,3.328,0,0,1,3.493-2.787c.888.075,1.775,0,2.663,0,.528,0,.763.186.865.754C339.021,215.022,339.842,218.612,340.468,222.775Z" transform="translate(-164.994 -37.472)" fill="#fff"/>
    <path id="Path_1266" data-name="Path 1266" d="M271.246,226.717l4.438,7.545c-1.775.328-3.386.027-5.153.169a1.576,1.576,0,0,1-1.615-.959c-1.109-1.931-2.312-3.808-3.4-5.747a1.93,1.93,0,0,0-1.993-1.1c-2.614.111-1.966-.364-2.663,2.219-.386,1.451-.661,2.934-1,4.394a1.316,1.316,0,0,1-1.575,1.2,36.325,36.325,0,0,0-3.808-.022c-.617,0-.808-.257-.666-.821,1.6-6.151,3.107-12.32,4.487-18.524a5.086,5.086,0,0,1,5.113-4.163c3.812,0,7.625.035,11.432,0s5.743,3.315,4.669,6.848a27.076,27.076,0,0,0-.959,3.959c-.391,2.778-2.339,5.326-5.885,4.966a11.984,11.984,0,0,0-1.416.035Zm-8.179-5.769c.231.142.288.209.346.209,3.049,0,6.1.049,9.156,0,.231,0,.581-.342.661-.6.324-1,.55-2.037.839-3.053.235-.839,0-1.225-.928-1.216-2.712.022-5.423,0-8.13.036a1.331,1.331,0,0,0-1,.737c-.377,1.278-.635,2.583-.941,3.883Z" transform="translate(-124.663 -37.877)" fill="#fff"/>
    <path id="Path_1267" data-name="Path 1267" d="M415.294,210.89c-1.664,7.616-3.657,14.646-5.326,22.19-.2.95-.568,1.451-1.633,1.362a21.27,21.27,0,0,0-3.191,0c-.923.053-1.083-.4-.888-1.132.328-1.331.675-2.694,1.052-4.03.333-1.189.2-1.411-1-1.416h-7.731c-.666,0-.914.169-1.047.888-.315,1.74-.794,3.448-1.238,5.166-.044.186-.28.444-.444.444-1.7.036-3.408.022-5.259.022,1.722-6.795,3.107-13.425,4.971-20.135a4.526,4.526,0,0,1,4.735-3.342Zm-13.208,11.432v.031H406.1c.573,0,.865-.146,1-.754.324-1.429.71-2.845,1.105-4.261.213-.759,0-1.074-.812-1.065q-3.968.049-7.935,0a.941.941,0,0,0-1.074.834c-.346,1.425-.755,2.836-1.123,4.256-.169.666.129.959.808.954C399.423,222.314,400.755,222.322,402.086,222.322Z" transform="translate(-199.655 -37.867)" fill="#fff"/>
    <path id="Path_1268" data-name="Path 1268" d="M213.229,226.607c-1.855,0-3.715.089-5.561-.035-1.176-.08-1.491.559-1.7,1.442-.444,1.9-.825,3.8-1.3,5.69a1.021,1.021,0,0,1-.719.635c-1.473.062-2.951.067-4.438,0a.99.99,0,0,1-.67-.715c.5-4.114,1.922-8.068,2.827-12.107.577-2.3,1.127-4.611,1.7-6.919a4.926,4.926,0,0,1,4.86-3.808c4.083.111,8.17.022,12.258.027a4.423,4.423,0,0,1,4.438,4.309,28.233,28.233,0,0,1-.719,4.607c-1.411,8.153-4.061,6.786-10.993,6.892Zm-.155-5.481c1.3,0,2.61-.071,3.9,0a1.321,1.321,0,0,0,1.589-1.167c.2-.834.4-1.775.612-2.689.164-.7-.084-1.039-.825-1.039h-8.224a1.178,1.178,0,0,0-1.309,1.141,21.388,21.388,0,0,1-.612,2.7c-.231.763-.115,1.078.754,1.047,1.367-.027,2.743,0,4.114.009Z" transform="translate(-94.123 -37.811)" fill="#fff"/>
    <path id="Path_1269" data-name="Path 1269" d="M310.612,234.348H310c-2.374,0-2.343,0-1.744-2.29,1.256-5.286,2.636-10.545,3.9-15.826.661-3.311,2.583-6,6.267-5.352.177.022.466.568.413.8-.524,2.339-1.105,4.66-1.669,6.99-1.243,5.033-2.4,10.092-3.653,15.125a1,1,0,0,1-.732.519,20.648,20.648,0,0,1-2.161.027Z" transform="translate(-154.781 -37.808)" fill="#fff"/>
    <path id="Path_1270" data-name="Path 1270" d="M351.5,279.991c.826-3.32,1.558-6.373,2.352-9.413a2.237,2.237,0,0,1,3.027-1.225.741.741,0,0,1,.3.479c.306,1.624.595,3.258.95,5.228,1.5-1.9,2.53-3.462,3.9-5.326a1.039,1.039,0,0,1,.648-.413c.843-.049,1.691,0,2.663,0-.723,3.417-1.6,6.391-2.3,9.706-.142.888-.515,1.087-1.283,1.03-.506-.036-1.012,0-1.624,0,.413-1.669.794-3.182,1.172-4.7l-.266-.142c-.786,1.07-1.647,2.095-2.348,3.226-.293.5-.657,1.07-1.252.732-1.354-.852-1.331-2.694-1.642-4.1l-.311-.067c-.484,1.5-.857,3.027-1.2,4.562a.719.719,0,0,1-.444.444C353.124,280.022,352.414,279.991,351.5,279.991Z" transform="translate(-179.026 -70.266)" fill="#fff"/>
    <path id="Path_1271" data-name="Path 1271" d="M277,280.135c.763-3.142,1.536-5.925,2.135-8.876.581-1.283,1.012-1.966,2.663-1.9,2.192.084,4.389,0,6.586,0,.719,0,1.132,0,.79,1.043-.945,3.044-1.429,6.235-2.277,9.32a.675.675,0,0,1-.506.368c-.635.044-1.278,0-2.042,0,.044-.519.058-.888.111-1.247.182-1.212.186-1.212-1.078-1.22H281.94c-1.624,0-1.58.022-2.073,1.62C279.317,280.4,278.127,280.153,277,280.135Zm6.866-8.233c-2.219-.027-2.379.058-2.663,1.5-.107.559,0,.954.692.941,1.03,0,2.059.022,3.107-.031a.91.91,0,0,0,.643-.444c.99-2.219.107-1.917-1.8-1.962Z" transform="translate(-137.59 -70.383)" fill="#fff"/>
    <path id="Path_1272" data-name="Path 1272" d="M236.591,280.149c.12-.888,1.052-2.5-.249-2.468H234.8c-.617,0-1.354-.169-1.811.111s-.506,1.007-.732,1.544c-.293.7-1.917,1.2-2.463.7a1.03,1.03,0,0,1-.182-.839c.626-2.6,1.252-5.206,1.962-7.784.444-1.655,1.061-2.037,2.729-2.033,2.09,0,4.185.058,6.275,0,.932-.027,1.176.355,1,1.149-.311,1.354-.652,2.7-.99,4.052s-.759,2.752-1.043,4.145-.231,1.416-1.691,1.416Zm-2.969-5.769h2.8c1.642,0,1.615,0,1.944-1.62.124-.6-.027-.839-.63-.83-.857,0-1.713.053-2.565,0a1.149,1.149,0,0,0-1.38,1.238c-.022.324-.089.652-.164,1.189Z" transform="translate(-111.218 -70.398)" fill="#fff"/>
    <path id="Path_1273" data-name="Path 1273" d="M302.22,280.091c.808-3.311,1.571-6.311,2.352-9.542a1.356,1.356,0,0,1,1.509-1.11c2.13,0,4.261,0,6.391.022a2.268,2.268,0,0,1,1.979,2.61c-.51,2.126-1.047,4.247-1.593,6.364a2.161,2.161,0,0,1-2.219,1.749C307.807,280.14,305.056,280.3,302.22,280.091Zm3.4-2.414c1.5,0,2.858.022,4.221-.027.2,0,.5-.333.568-.568.417-1.442.781-2.9,1.154-4.354.133-.519-.071-.786-.621-.781-1.2,0-2.405,0-3.608.036a.746.746,0,0,0-.577.4C306.37,274.064,306.028,275.755,305.624,277.677Z" transform="translate(-151.617 -70.433)" fill="#fff"/>
    <path id="Path_1274" data-name="Path 1274" d="M333.12,273.529h4.11a10.686,10.686,0,0,1-.315,1.931,1.1,1.1,0,0,1-.83.524,25.3,25.3,0,0,1-2.783.031,1.016,1.016,0,0,0-1.2,1.087c0,.786.67.519,1.087.528,1.544.036,3.107.027,4.638,0,.643,0,.861.213.652.888-.5,1.589-.479,1.6-2.241,1.6H331.3a2.219,2.219,0,0,1-2.01-2.725c2.525-9.639.5-7.838,10.38-8.024.794,0,1.021.182.746,1.03-.475,1.447-.408,1.473-1.935,1.478-1.274,0-2.552.084-3.812-.022C333.515,271.776,333.12,272.246,333.12,273.529Z" transform="translate(-166.637 -70.381)" fill="#fff"/>
    <path id="Path_1275" data-name="Path 1275" d="M258.09,277.535a49.323,49.323,0,0,0,5.667.111c.848,0,1.012.391.839,1.092-.231.888-.541,1.553-1.775,1.447-1.775-.146-3.55-.031-5.352-.04-1.167,0-1.971-.608-1.931-1.775a27.005,27.005,0,0,1,.6-4.016c.169-.932.475-1.837.648-2.765a2.49,2.49,0,0,1,2.539-2.219H265.8c.8,0,1.105.262.728,1.052a1.717,1.717,0,0,0-.191.683c0,.648-.346.786-.928.777-1.611-.022-3.226.036-4.837,0-.812-.022-1.194.164-1.331,1.078C259,274.464,258.512,275.92,258.09,277.535Z" transform="translate(-125.652 -70.393)" fill="#fff"/>
    <path id="Path_1276" data-name="Path 1276" d="M384.35,269.542c3.027-1.269,3.6,1.016,4.54,3.022,1.917-2.05,2.614-4.2,5.934-3.049-.63.777-1.207,1.509-1.806,2.219a22.478,22.478,0,0,0-2.627,3.155,23.021,23.021,0,0,0-1.314,3.839c-.146.444-.32,1.109-.608,1.181a6.06,6.06,0,0,1-2.117,0c-.089,0-.213-.555-.16-.821.359-1.518,1.065-3.209.488-4.749C386.01,272.706,385.149,271.153,384.35,269.542Z" transform="translate(-197.297 -70.286)" fill="#fff"/>
  </g>
</svg>
