<svg id="receipt" xmlns="http://www.w3.org/2000/svg" width="16" height="16" viewBox="0 0 16 16">
  <g id="Layer_1" data-name="Layer 1">
    <path id="Path_45" data-name="Path 45" d="M7.412,15.165a1.551,1.551,0,0,1-1.551-1.551V4.92a.629.629,0,0,0-.622-.629.465.465,0,1,1,0-.923h7.285a1,1,0,0,1,1,1V12.52a.472.472,0,0,1-.472.472h-4.1v.581A1.579,1.579,0,0,1,7.808,15.11H7.515ZM6.653,4.291a1.483,1.483,0,0,1,.13.629v8.693a.629.629,0,0,0,.629.629h.15a.683.683,0,0,0,.472-.649V12.533a.472.472,0,0,1,.472-.465h4.1v-7.7a.089.089,0,0,0-.082-.082ZM7.535,14.228ZM7.535,14.228Z" transform="translate(-1.493 -1.065)" fill="#fff"/>
    <path id="Path_46" data-name="Path 46" d="M5.848,7.56H3.675A.458.458,0,0,1,3.21,7.1V4.929A1.551,1.551,0,0,1,3.7,3.808,1.51,1.51,0,0,1,4.864,3.4,1.558,1.558,0,0,1,6.306,4.963V7.1A.458.458,0,0,1,5.848,7.56ZM4.133,6.637H5.383V4.963A.683.683,0,0,0,4.8,4.279a.629.629,0,0,0-.683.629Z" transform="translate(-1.016 -1.074)" fill="#fff"/>
    <path id="Path_47" data-name="Path 47" d="M6.063,5.17V7.309H3.89V5.136A1.087,1.087,0,0,1,5.045,4.049,1.114,1.114,0,0,1,6.063,5.17Z" transform="translate(-1.231 -1.281)" fill="#fff"/>
    <path id="Path_48" data-name="Path 48" d="M15.21,19.2H8.471a.465.465,0,0,1,0-.923h.164a.622.622,0,0,0,.458-.608v-1.1a.472.472,0,0,1,.472-.465H16.3a.458.458,0,0,1,.465.458v1.087A1.551,1.551,0,0,1,15.21,19.2Zm-5.324-.923H15.21a.629.629,0,0,0,.629-.629v-.622H10.022v.622A1.483,1.483,0,0,1,9.886,18.273ZM8.594,18.273ZM8.594,18.273Z" transform="translate(-2.552 -5.097)" fill="#fff"/>
    <path id="Path_49" data-name="Path 49" d="M16.517,16.77v1.087a1.087,1.087,0,0,1-1.087,1.121H9.006a1.087,1.087,0,0,0,.806-1.052V16.777Z" transform="translate(-2.773 -5.309)" fill="#fff"/>
    <path id="Path_50" data-name="Path 50" d="M10.035,17.029a.465.465,0,0,1,0-.929h0a.458.458,0,0,1,.458.458.437.437,0,0,1-.137.328A.444.444,0,0,1,10.035,17.029Z" transform="translate(-3.029 -5.097)" fill="#fff"/>
    <rect id="Rectangle_24" data-name="Rectangle 24" width="5.003" height="0.649" rx="0.325" transform="translate(5.7 6.137)" fill="#fff"/>
    <rect id="Rectangle_25" data-name="Rectangle 25" width="5.003" height="0.649" rx="0.325" transform="translate(5.7 7.873)" fill="#fff"/>
    <rect id="Rectangle_26" data-name="Rectangle 26" width="5.003" height="0.649" rx="0.325" transform="translate(5.7 9.616)" fill="#fff"/>
    <rect id="Rectangle_27" data-name="Rectangle 27" width="16" height="16" fill="none"/>
  </g>
</svg>
