<svg id="support_agent-24px" xmlns="http://www.w3.org/2000/svg" width="24" height="24" viewBox="0 0 24 24">
  <g id="Group_36" data-name="Group 36">
    <rect id="Rectangle_16" data-name="Rectangle 16" width="24" height="24" fill="none"/>
  </g>
  <g id="Group_38" data-name="Group 38">
    <g id="Group_37" data-name="Group 37">
      <path id="Path_267" data-name="Path 267" d="M21,12.22a9,9,0,1,0-18,.06A1.968,1.968,0,0,0,2,14v2a2.006,2.006,0,0,0,2,2H5V11.9a7,7,0,0,1,14,0V19H11v2h8a2.006,2.006,0,0,0,2-2V17.78a1.849,1.849,0,0,0,1-1.64v-2.3A1.841,1.841,0,0,0,21,12.22Z" fill="#fff"/>
      <circle id="Ellipse_4" data-name="Ellipse 4" cx="1" cy="1" r="1" transform="translate(8 12)" fill="#fff"/>
      <circle id="Ellipse_5" data-name="Ellipse 5" cx="1" cy="1" r="1" transform="translate(14 12)" fill="#fff"/>
      <path id="Path_268" data-name="Path 268" d="M18,11.03A6.039,6.039,0,0,0,6.02,12.45a8.075,8.075,0,0,0,4.86-5.89A8.037,8.037,0,0,0,18,11.03Z" fill="#fff"/>
    </g>
  </g>
</svg>
