<svg id="trash" xmlns="http://www.w3.org/2000/svg" width="16" height="16" viewBox="0 0 16 16">
  <g id="Layer_1" data-name="Layer 1">
    <path id="Path_233" data-name="Path 233" d="M13.8,4.677V4.9a.34.34,0,0,1-.34.34H6.93a.34.34,0,0,1-.34-.34V4.677a.34.34,0,0,1,.34-.34H9.183v-.22A.227.227,0,0,1,9.41,3.89h1.573a.227.227,0,0,1,.227.227v.22h2.253a.34.34,0,0,1,.34.34Z" transform="translate(-2.197 -1.297)" fill="#fff"/>
    <path id="Path_234" data-name="Path 234" d="M6.59,7.157v7.887a.567.567,0,0,0,.567.56h6.08a.567.567,0,0,0,.567-.56V7.157a.567.567,0,0,0-.567-.567H7.157A.567.567,0,0,0,6.59,7.157Zm2.367,6.42a.227.227,0,0,1-.227.227H8.5a.227.227,0,0,1-.22-.227V8.617A.22.22,0,0,1,8.5,8.4H8.73a.227.227,0,0,1,.227.22Zm1.58,0a.227.227,0,0,1-.227.227h-.227a.227.227,0,0,1-.227-.227V8.617a.227.227,0,0,1,.227-.22h.227a.227.227,0,0,1,.227.22Zm1.573,0a.227.227,0,0,1-.22.227h-.227a.227.227,0,0,1-.227-.227V8.617a.227.227,0,0,1,.227-.22h.227a.22.22,0,0,1,.22.22Z" transform="translate(-2.197 -2.197)" fill="#fff"/>
    <rect id="Rectangle_131" data-name="Rectangle 131" width="16" height="16" fill="none"/>
  </g>
</svg>
